<svg xmlns="http://www.w3.org/2000/svg" width="150" height="150" viewBox="0 0 150 150" version="1.1"><path d="M 48.796 86.750 C 48.161 88.263, 47.609 94.450, 47.571 100.500 C 47.507 110.363, 47.771 112.078, 50.120 117.086 C 53.311 123.892, 58.779 129.543, 64.911 132.372 C 72.081 135.681, 85.570 135.404, 93.281 131.791 C 100.834 128.252, 109.944 119.494, 113.388 112.461 C 118.037 102.966, 117.856 92.901, 112.924 86.631 C 110.888 84.042, 110.655 84, 98.449 84 L 86.043 84 80.640 89.403 C 75.536 94.507, 70 103.925, 70 107.504 C 70 110.683, 72.023 113, 74.785 112.985 C 78.474 112.964, 79.366 112.224, 82.002 107 C 86.469 98.149, 93.268 92, 98.587 92 C 103.519 92, 104.369 96.375, 101.107 104.960 C 94.025 123.599, 73.734 129.936, 65.602 116.049 C 62.857 111.362, 63.142 100.415, 66.251 91.147 L 68.647 84 59.299 84 C 50.047 84, 49.939 84.028, 48.796 86.750" stroke="none" fill="#44b6fc" fill-rule="evenodd"/><path d="M 26.969 24.536 C 16.946 27.626, 9.915 37.140, 9.873 47.673 C 9.846 54.265, 11.034 58.045, 14.602 62.723 C 19.838 69.587, 33.781 75, 46.228 75 C 49.953 75, 53 75.239, 53 75.532 C 53 75.825, 52.325 77.680, 51.500 79.654 C 50.675 81.629, 50 83.414, 50 83.622 C 50 83.830, 54.163 83.999, 59.250 83.998 L 68.500 83.995 71.268 78.698 L 74.035 73.401 80.768 72.234 C 96.903 69.437, 102.192 66.265, 100.062 60.663 C 98.750 57.213, 95.393 56.509, 89.127 58.370 C 86.307 59.207, 84.007 59.579, 84.015 59.196 C 84.023 58.813, 85.486 56.822, 87.265 54.770 C 90.335 51.230, 90.939 50.987, 99.133 50.006 C 110.883 48.600, 122.051 44.578, 130.250 38.801 C 133.511 36.504, 133.948 32.168, 131.171 29.655 C 128.653 27.376, 127.103 27.555, 120.353 30.902 C 106.870 37.587, 100.826 37.314, 66.291 28.458 C 43.391 22.585, 35.765 21.825, 26.969 24.536 M 25.097 40.750 C 20.197 44.787, 20.825 53.239, 26.338 57.444 C 31.596 61.455, 37.718 63.141, 49.153 63.728 L 59.806 64.274 63.536 59.083 C 65.587 56.228, 68.861 52.808, 70.811 51.483 C 73.212 49.851, 73.895 48.926, 72.928 48.615 C 66.961 46.698, 32.857 38.990, 30.361 38.994 C 28.634 38.997, 26.266 39.788, 25.097 40.750 M 92.750 81.556 C 90.138 82.383, 88 83.272, 88 83.530 C 88 83.789, 93.063 83.982, 99.250 83.960 C 109.574 83.923, 110.283 83.802, 107.870 82.491 C 103.776 80.266, 97.957 79.906, 92.750 81.556" stroke="none" fill="#12e2fc" fill-rule="evenodd"/></svg>